<?xml version="1.0" standalone="no"?>
<!DOCTYPE svg PUBLIC "-//W3C//DTD SVG 20010904//EN"
 "http://www.w3.org/TR/2001/REC-SVG-20010904/DTD/svg10.dtd">
<svg version="1.0" xmlns="http://www.w3.org/2000/svg"
 width="250.000000pt" height="1080.000000pt" viewBox="0 0 650.000000 1280.000000"
 preserveAspectRatio="xMidYMid meet">
<metadata>
Created by potrace 1.15, written by Peter Selinger 2001-2017
</metadata>
<g transform="translate(0.000000,1280.000000) scale(0.100000,-0.100000)"
fill="white" stroke="none">
<path d="M3040 12789 c-675 -87 -1237 -547 -1450 -1187 -71 -214 -95 -388 -87
-622 3 -97 13 -196 27 -264 77 -390 290 -757 581 -1001 52 -43 95 -81 97 -85
1 -4 -19 -15 -45 -25 -220 -83 -565 -280 -825 -473 -51 -37 -115 -81 -143 -97
-108 -62 -209 -187 -265 -327 -51 -128 -900 -2784 -915 -2863 -41 -213 14
-432 139 -556 229 -230 582 -130 759 216 17 33 126 357 243 720 l213 660 1
-2950 c0 -1893 4 -2984 10 -3045 25 -235 118 -430 284 -596 125 -125 246 -196
426 -251 75 -23 107 -27 277 -31 152 -3 208 -1 273 12 194 40 357 124 497 259
l83 80 72 -72 c126 -127 276 -213 459 -263 75 -20 106 -23 284 -23 174 0 211
3 289 23 349 88 623 360 718 713 l23 84 5 3050 c3 1678 6 3047 8 3043 1 -3
102 -300 223 -660 135 -399 237 -684 262 -733 59 -114 176 -231 279 -280 41
-20 105 -41 140 -47 163 -27 333 53 429 203 70 110 104 295 79 446 -8 52 -171
548 -485 1473 -260 767 -480 1412 -490 1434 -54 127 -180 264 -295 325 -36 19
-131 76 -213 128 -247 158 -476 279 -715 380 l-43 18 68 50 c90 66 245 221
320 320 227 301 347 636 360 1005 8 235 -16 408 -88 624 -238 717 -914 1202
-1665 1195 -77 -1 -168 -5 -204 -10z m498 -673 c333 -93 602 -329 732 -643
140 -337 104 -734 -95 -1034 -66 -98 -199 -235 -291 -299 -101 -70 -243 -136
-361 -167 -88 -23 -116 -26 -273 -26 -158 -1 -184 2 -273 26 -417 112 -722
436 -812 862 -23 108 -24 303 -1 418 88 456 443 804 905 887 25 5 120 7 211 6
141 -3 178 -7 258 -30z m-109 -3127 c171 -19 406 -86 611 -174 147 -63 449
-227 503 -273 16 -14 17 -210 17 -3857 0 -3808 0 -3842 -20 -3920 -50 -195
-179 -354 -340 -417 -77 -30 -217 -36 -296 -13 -168 48 -301 183 -372 377
l-27 73 -6 1855 c-3 1020 -7 1998 -8 2173 l-1 317 -277 -2 -278 -3 -5 -2120
-5 -2120 -27 -73 c-71 -194 -204 -329 -372 -377 -80 -23 -219 -16 -296 14
-162 64 -290 222 -340 417 -20 76 -20 121 -20 3865 l0 3788 33 25 c79 61 255
164 402 236 389 192 723 254 1124 209z"/>
</g>
</svg>
